#!OML:ASF E:\motion texture\Top Level 1\Subject 1\Session 1\male.ASF
:FULLY-SPECIFIED
:DEGREES
433
root -1.77673 18.0278 4.33102 403.305 -76.8735 -399.48
lowerback -2.9112 1.25396 6.06379
upperback -2.71685 1.47083 3.75116
thorax -1.11266 0.626131 0.496239
lowerneck -14.5921 4.59222 0.335109
upperneck 27.7033 4.63384 4.82998
head 11.2831 2.57704 2.31884
rclavicle 4.88265e-015 3.18055e-014
rhumerus -24.8513 -13.5547 -67.5877
rradius 28.1371
rwrist 2.9423
rhand -14.3526 -34.7283
rfingers 7.12502
rthumb 11.7891 -64.3765
lclavicle 4.88265e-015 3.18055e-014
lhumerus -0.202019 4.3602 68.8832
lradius 57.3219
lwrist 35.7024
lhand -6.08392 45.7772
lfingers 7.12502
lthumb 19.7517 74.7936
rfemur -10.189 0.715684 33.1609
rtibia 18.5127
rfoot -8.45271 -10.7998
rtoes 18.6526
lfemur -24.2844 -3.01632 -6.97004
ltibia 51.1762
lfoot -4.49713 -2.07123
ltoes -16.6986
434
root -1.89702 18.0335 4.32422 403.561 -76.9023 -399.758
lowerback -2.94341 1.33898 6.02079
upperback -2.82771 1.58801 3.71372
thorax -1.20506 0.681158 0.483845
lowerneck -14.4476 4.50319 0.166327
upperneck 27.0872 4.52571 5.0547
head 11.0117 2.54724 2.3892
rclavicle 1.34552e-014 2.3059e-014
rhumerus -24.3177 -12.9116 -67.8228
rradius 28.5136
rwrist 2.61748
rhand -14.4465 -34.8867
rfingers 7.12502
rthumb 11.6986 -64.54
lclavicle 1.34552e-014 2.3059e-014
lhumerus 1.85154 3.84386 68.3959
lradius 58.5335
lwrist 36.1033
lhand -5.55154 45.3779
lfingers 7.12502
lthumb 20.2634 74.3409
rfemur -9.59326 0.62401 33.3049
rtibia 18.2554
rfoot -8.70125 -10.7751
rtoes 18.4744
lfemur -24.7693 -2.86185 -7.01607
ltibia 50.2762
lfoot -4.8906 -1.69887
ltoes -16.7489
435
root -2.01705 18.0386 4.31847 403.881 -76.9543 -400.088
lowerback -2.981 1.42777 5.97669
upperback -2.94345 1.70978 3.67388
thorax -1.29935 0.738329 0.469716
lowerneck -14.2875 4.41319 -0.0150336
upperneck 26.4347 4.42183 5.28364
head 10.727 2.51775 2.46165
rclavicle -1.63997e-015 2.18663e-014
rhumerus -23.7835 -12.2593 -68.0634
rradius 28.9095
rwrist 2.29479
rhand -14.5355 -35.0264
rfingers 7.12502
rthumb 11.6127 -64.6846
lclavicle -1.63997e-015 2.18663e-014
lhumerus 3.90031 3.42049 67.8943
lradius 59.6347
lwrist 36.3665
lhand -5.04804 44.9312
lfingers 7.12502
lthumb 20.7473 73.8421
rfemur -9.01377 0.541493 33.4365
rtibia 18.0066
rfoot -8.94804 -10.7445
rtoes 18.279
lfemur -25.2232 -2.70206 -7.07219
ltibia 49.2874
lfoot -5.23082 -1.33834
ltoes -16.7656
436
root -2.13687 18.0431 4.3138 404.267 -77.0287 -400.476
lowerback -3.02436 1.52027 5.93262
upperback -3.0632 1.83592 3.63236
thorax -1.39438 0.797546 0.453988
lowerneck -14.1106 4.32232 -0.209426
upperneck 25.7449 4.32256 5.5164
head 10.4287 2.48858 2.53607
rclavicle -2.17793e-014 4.8901e-014
rhumerus -23.2483 -11.601 -68.3087
rradius 29.3227
rwrist 1.97565
rhand -14.6192 -35.1437
rfingers 7.12502
rthumb 11.532 -64.8065
lclavicle -2.17793e-014 4.8901e-014
lhumerus 5.93448 3.08538 67.3886
lradius 60.6241
lwrist 36.4935
lhand -4.56909 44.4468
lfingers 7.12502
lthumb 21.2074 73.3067
rfemur -8.44983 0.469505 33.556
rtibia 17.767
rfoot -9.19362 -10.7089
rtoes 18.0673
lfemur -25.6468 -2.53792 -7.13636
ltibia 48.2163
lfoot -5.51936 -0.991586
ltoes -16.7574
437
root -2.25654 18.0468 4.31022 404.723 -77.1252 -400.923
lowerback -3.07249 1.61654 5.88943
upperback -3.18658 1.96655 3.58934
thorax -1.49032 0.858851 0.43637
lowerneck -13.9174 4.23045 -0.416614
upperneck 25.0183 4.22787 5.75201
head 10.1177 2.45952 2.61213
rclavicle -2.36802e-014 -2.56432e-014
rhumerus -22.713 -10.937 -68.5588
rradius 29.7541
rwrist 1.65637
rhand -14.6987 -35.2454
rfingers 7.12502
rthumb 11.4553 -64.9124
lclavicle -2.36802e-014 -2.56432e-014
lhumerus 7.94276 2.83147 66.8873
lradius 61.5031
lwrist 36.4891
lhand -4.0764 43.9289
lfingers 7.12502
lthumb 21.6806 72.735
rfemur -7.90103 0.407834 33.6635
rtibia 17.5377
rfoot -9.43688 -10.6693
rtoes 17.8278
lfemur -26.0406 -2.37044 -7.20771
ltibia 47.0707
lfoot -5.75936 -0.657503
ltoes -16.7328
438
root -2.37608 18.0498 4.30777 405.254 -77.2441 -401.434
lowerback -3.12589 1.71705 5.84786
upperback -3.3136 2.10221 3.54466
thorax -1.58682 0.922486 0.416324
lowerneck -13.706 4.13814 -0.634719
upperneck 24.2544 4.13832 5.98927
head 9.79387 2.43079 2.6891
rclavicle -4.96962e-017 1.41137e-014
rhumerus -22.1784 -10.2727 -68.8126
rradius 30.2013
rwrist 1.34103
rhand -14.7713 -35.3259
rfingers 7.12502
rthumb 11.3853 -64.9969
lclavicle -4.96962e-017 1.41137e-014
lhumerus 9.91346 2.64988 66.3968
lradius 62.2749
lwrist 36.361
lhand -3.62798 43.3867
lfingers 7.12502
lthumb 22.1112 72.1424
rfemur -7.36823 0.358406 33.7585
rtibia 17.3198
rfoot -9.68166 -10.6271
rtoes 17.5769
lfemur -26.4065 -2.20042 -7.28533
ltibia 45.8574
lfoot -5.95356 -0.334779
ltoes -16.6981
439
root -2.49556 18.052 4.30648 405.863 -77.3852 -402.015
lowerback -3.18447 1.82167 5.80901
upperback -3.44348 2.24268 3.49846
thorax -1.6831 0.988334 0.39343
lowerneck -13.4765 4.04593 -0.863464
upperneck 23.4537 4.0546 6.22764
head 9.45783 2.40261 2.76691
rclavicle 1.20762e-014 4.11484e-014
rhumerus -21.6435 -9.60746 -69.0708
rradius 30.6624
rwrist 1.02734
rhand -14.8428 -35.3829
rfingers 7.12502
rthumb 11.3163 -65.0576
lclavicle 1.20762e-014 4.11484e-014
lhumerus 11.835 2.53398 65.9229
lradius 62.9447
lwrist 36.1141
lhand -3.23537 42.844
lfingers 7.12502
lthumb 22.4881 71.5546
rfemur -6.85093 0.322037 33.841
rtibia 17.1142
rfoot -9.92744 -10.5824
rtoes 17.3075
lfemur -26.7451 -2.02887 -7.36827
ltibia 44.5833
lfoot -6.10142 -0.0224766
ltoes -16.6539
440
root -2.61494 18.0534 4.3063 406.551 -77.5464 -402.665
lowerback -3.24711 1.93006 5.77351
upperback -3.5763 2.38756 3.4508
thorax -1.77986 1.05616 0.367347
lowerneck -13.2274 3.95393 -1.10071
upperneck 22.6151 3.97662 6.46549
head 9.10933 2.37486 2.84461
rclavicle -3.557e-014 -9.93923e-015
rhumerus -21.1089 -8.94281 -69.3336
rradius 31.1362
rwrist 0.715644
rhand -14.9074 -35.4216
rfingers 7.12502
rthumb 11.2541 -65.0998
lclavicle -3.557e-014 -9.93923e-015
lhumerus 13.6961 2.47313 65.4693
lradius 63.5206
lwrist 35.7643
lhand -2.98179 42.3058
lfingers 7.12502
lthumb 22.7314 70.9868
rfemur -6.34929 0.299741 33.9116
rtibia 16.9215
rfoot -10.1741 -10.5375
rtoes 17.018
lfemur -27.0593 -1.85821 -7.45422
ltibia 43.2577
lfoot -6.2065 0.279951
ltoes -16.5947
441
root -2.7343 18.054 4.30728 407.326 -77.7283 -403.392
lowerback -3.31442 2.04251 5.74156
upperback -3.7111 2.53714 3.40191
thorax -1.8757 1.12613 0.338271
lowerneck -12.9591 3.8626 -1.34733
upperneck 21.7395 3.90489 6.70351
head 8.74896 2.34774 2.92274
rclavicle 3.51849e-014 -4.37326e-015
rhumerus -20.5741 -8.28116 -69.6003
rradius 31.6207
rwrist 0.407727
rhand -14.9594 -35.4429
rfingers 7.12502
rthumb 11.204 -65.1238
lclavicle 3.51849e-014 -4.37326e-015
lhumerus 15.4859 2.4603 65.0399
lradius 64.0097
lwrist 35.3166
lhand -2.7733 41.7697
lfingers 7.12502
lthumb 22.9315 70.426
rfemur -5.863 0.290135 33.9693
rtibia 16.7425
rfoot -10.4219 -10.4912
rtoes 16.7047
lfemur -27.35 -1.68954 -7.5429
ltibia 41.8886
lfoot -6.27184 0.574689
ltoes -16.5235
442
root -2.85368 18.0537 4.30939 408.193 -77.9284 -404.203
lowerback -3.38565 2.15805 5.71401
upperback -3.84638 2.69008 3.35325
thorax -1.96955 1.1976 0.307252
lowerneck -12.6733 3.7728 -1.60306
upperneck 20.8274 3.84064 6.94032
head 8.37753 2.32169 3.00109
rclavicle -6.88292e-015 -3.37934e-015
rhumerus -20.0362 -7.62124 -69.8715
rradius 32.1141
rwrist 0.104186
rhand -15.0046 -35.444
rfingers 7.12502
rthumb 11.1603 -65.1272
lclavicle -6.88292e-015 -3.37934e-015
lhumerus 17.1949 2.49084 64.6373
lradius 64.4207
lwrist 34.7781
lhand -2.60071 41.2303
lfingers 7.12502
lthumb 23.0971 69.8659
rfemur -5.39088 0.294573 34.0155
rtibia 16.5775
rfoot -10.6722 -10.4458
rtoes 16.3752
lfemur -27.619 -1.52427 -7.6311
ltibia 40.4849
lfoot -6.30029 0.862889
ltoes -16.4324
443
root -2.97312 18.0526 4.31265 409.155 -78.1459 -405.101
lowerback -3.46046 2.27654 5.69094
upperback -3.98172 2.84622 3.30462
thorax -2.06114 1.27049 0.274028
lowerneck -12.3696 3.68474 -1.86562
upperneck 19.8791 3.78381 7.17402
head 7.99532 2.29663 3.07872
rclavicle -2.45002e-014 1.51076e-014
rhumerus -19.4955 -6.96154 -70.1473
rradius 32.615
rwrist -0.197196
rhand -15.042 -35.4269
rfingers 7.12502
rthumb 11.1242 -65.112
lclavicle -2.45002e-014 1.51076e-014
lhumerus 18.814 2.55707 64.2625
lradius 64.7618
lwrist 34.1544
lhand -2.46303 40.6935
lfingers 7.12502
lthumb 23.2292 69.3125
rfemur -4.9326 0.310156 34.0489
rtibia 16.4271
rfoot -10.9238 -10.3989
rtoes 16.0201
lfemur -27.868 -1.36501 -7.71848
ltibia 39.0554
lfoot -6.2927 1.14541
ltoes -16.316
444
root -3.09265 18.0506 4.31705 410.215 -78.3786 -406.091
lowerback -3.53846 2.39726 5.6729
upperback -4.11633 3.00459 3.25638
thorax -2.14986 1.34432 0.238679
lowerneck -12.0499 3.59891 -2.13528
upperneck 18.8967 3.73453 7.40565
head 7.60351 2.27274 3.15626
rclavicle -2.31211e-014 1.63003e-014
rhumerus -18.9512 -6.30592 -70.4272
rradius 33.1213
rwrist -0.492144
rhand -15.0687 -35.3877
rfingers 7.12502
rthumb 11.0985 -65.0742
lclavicle -2.31211e-014 1.63003e-014
lhumerus 20.3352 2.65308 63.9161
lradius 65.0427
lwrist 33.4493
lhand -2.36074 40.1612
lfingers 7.12502
lthumb 23.3274 68.7678
rfemur -4.48784 0.336369 34.0695
rtibia 16.2916
rfoot -11.1783 -10.3512
rtoes 15.6501
lfemur -28.0998 -1.21446 -7.80336
ltibia 37.6098
lfoot -6.25187 1.42496
ltoes -16.1846
445
root -3.21228 18.0477 4.32255 411.38 -78.6242 -407.178
lowerback -3.61843 2.51995 5.66065
upperback -4.2502 3.16493 3.20857
thorax -2.23634 1.41891 0.200814
lowerneck -11.7131 3.51581 -2.40794
upperneck 17.8808 3.69278 7.63282
head 7.20231 2.25003 3.23235
rclavicle -1.17904e-014 1.51076e-014
rhumerus -18.4026 -5.65703 -70.7116
rradius 33.6289
rwrist -0.776962
rhand -15.0794 -35.3351
rfingers 7.12502
rthumb 11.0882 -65.0222
lclavicle -1.17904e-014 1.51076e-014
lhumerus 21.7499 2.77129 63.5953
lradius 65.2726
lwrist 32.6687
lhand -2.29658 39.6337
lfingers 7.12502
lthumb 23.3889 68.2325
rfemur -4.05619 0.372648 34.0782
rtibia 16.1712
rfoot -11.4353 -10.3033
rtoes 15.2582
lfemur -28.3182 -1.07389 -7.88368
ltibia 36.1596
lfoot -6.17789 1.70357
ltoes -16.0241
